<svg width="84" height="25" viewBox="0 0 84 25" fill="none" xmlns="http://www.w3.org/2000/svg">
<path d="M0.874125 24V1.6H15.8501V4.352H3.81812V11.104H15.0501V13.856H3.81812V21.248H16.0101V24H0.874125ZM28.9316 9.248V0.799999H31.7156V24H28.9316V22.848C28.9316 21.888 29.4116 20.736 29.6996 19.84L29.1556 19.648C28.8676 20.576 28.6436 21.856 27.9716 22.528C26.7556 23.776 25.0916 24.48 22.9476 24.48C18.1476 24.48 14.9796 20.864 15.0116 16.096C15.0436 11.36 18.1796 7.488 22.9476 7.488C25.0916 7.488 26.7876 8.288 27.9716 9.568C28.6436 10.272 28.8676 11.552 29.1556 12.448L29.6996 12.288C29.3796 11.36 28.9316 10.208 28.9316 9.248ZM23.1396 21.824C26.7556 21.824 28.6756 19.36 28.6756 16.096C28.6756 12.864 26.7556 10.144 23.1396 10.144C19.4916 10.144 17.7956 12.864 17.7956 16.096C17.7956 19.36 19.4916 21.824 23.1396 21.824ZM33.2554 19.648V10.624H30.0554V8.064H33.2554V2.688H36.0394V8.064H40.1994V10.624H36.0394V19.648C36.0394 20.96 36.6474 21.344 38.1514 21.344H40.0394V24H37.0314C34.5674 24 33.2554 22.08 33.2554 19.648ZM52.3874 22.848C50.9154 24.256 49.6674 24.48 47.4914 24.48C44.5154 24.48 41.6674 22.592 41.6674 18.976V8H44.4514V17.056C44.4514 20.416 45.9234 21.888 48.0674 21.888C50.4034 21.888 53.1554 20.48 53.1554 17.056V8H55.9714V24H53.1554L53.1874 23.168C53.2194 22.4 53.6674 21.536 53.9554 20.832L53.4114 20.64C53.1554 21.344 52.8994 22.304 52.3874 22.848ZM61.4696 9.376C62.9736 7.84 64.4456 7.52 67.9016 7.52V10.176C64.1576 10.176 60.4456 11.424 60.4456 15.84V24H57.6616V8H60.4456V8.992C60.4456 9.92 59.9656 11.04 59.6456 11.904L60.1576 12.096C60.4776 11.232 60.7976 10.016 61.4696 9.376ZM76.2064 24.512C70.3184 24.512 67.1504 20.672 67.1504 15.904C67.1504 11.136 70.6064 7.52 75.5664 7.52C80.6224 7.52 83.7584 11.36 83.7264 15.712C83.7264 16.032 83.7584 16.768 83.7264 17.056L70.2544 17.024C70.2544 19.136 72.1104 21.952 75.9824 21.952C78.4784 21.952 80.0144 20.576 80.3664 19.424H83.3744C82.9264 21.088 80.7824 24.512 76.2064 24.512ZM70.2544 14.72H80.6224C80.6224 12.16 78.7024 9.984 75.5984 9.984C72.4304 9.984 70.2544 12.384 70.2544 14.72Z" fill="#2C2C2C"/>
</svg>
